<svg width="50" height="75" viewBox="0 0 50 75" fill="none" xmlns="http://www.w3.org/2000/svg">
<path d="M13.4587 74.3223C9.47098 74.0417 8.50546 73.5152 8.90548 71.8392C9.04472 71.2557 8.81579 71.0223 8.09988 71.0178C5.26325 70.9997 3.62134 69.337 3.62134 66.4825C3.62134 65.7524 3.4051 64.9379 3.14081 64.6725C2.29314 63.8212 3.64908 58.0708 4.89004 57.2543C5.46769 56.8741 5.94029 56.1294 5.94029 55.5993C5.94029 55.0692 6.3577 54.1025 6.86787 53.4511C7.37804 52.7997 7.79545 52.4897 7.79545 52.7621C7.79545 53.0346 7.53457 53.5344 7.21571 53.873C6.89686 54.2115 6.59261 55.2221 6.5396 56.1188C6.46069 57.4537 6.53074 57.5962 6.92625 56.9056C7.19192 56.4418 7.29401 55.7605 7.15313 55.3918C6.86001 54.6246 7.5881 54.4734 8.0399 55.2076C8.20445 55.475 8.09445 55.9899 7.79545 56.3517C7.49644 56.7135 7.36807 57.1985 7.51019 57.4295C7.6523 57.6604 7.57196 58.5379 7.33166 59.3794C6.85729 61.0405 7.1928 62.2117 7.84632 61.1758C8.15692 60.6836 8.24661 60.724 8.25214 61.359C8.25585 61.8074 8.09228 62.1742 7.88821 62.1742C7.23278 62.1742 6.40409 61.0818 6.40409 60.2178C6.40409 59.7567 6.21496 59.3794 5.98381 59.3794C5.3327 59.3794 4.90022 63.6694 5.25984 66.5606C5.57756 69.1145 6.4041 70.208 6.4041 68.0744C6.4041 67.4766 6.56063 66.8304 6.75194 66.6383C6.94326 66.4462 7.1296 65.7301 7.16605 65.0468C7.26416 63.2071 7.29451 63.1059 7.74791 63.1059C8.30901 63.1059 8.14825 66.0444 7.56358 66.4758C7.29955 66.6706 7.43804 66.8211 7.88513 66.8251C8.31706 66.8289 8.96604 66.4085 9.32724 65.8905C9.91662 65.0454 10.0459 65.0237 10.5873 65.6788C10.9191 66.0803 11.4971 66.2907 11.8718 66.1463C12.6547 65.8446 15.6798 66.8338 15.6798 67.3916C15.6798 67.5964 15.9331 67.7115 16.2426 67.6474C16.5521 67.5834 17.019 68.0026 17.2802 68.579C17.7673 69.6544 18.7516 70.0932 18.3248 69.0448C17.619 67.3111 17.6043 66.7944 18.2982 68.1132C18.7363 68.9458 19.3547 69.6271 19.6726 69.6271C20.0388 69.6271 19.7246 68.6029 18.8154 66.8323C17.8524 64.957 17.1005 64.0375 16.53 64.0375C15.4768 64.0375 15.4616 64.4394 16.4594 65.9135L17.239 67.0652L16.2275 66.1778C14.9155 65.0268 14.9444 64.1182 16.3096 63.5969C17.3678 63.1928 17.536 62.7313 18.1008 58.6809C18.2198 57.8279 17.9276 57.7378 14.6363 57.6132C11.1713 57.4821 11.042 57.5152 11.042 58.532V59.5869L10.32 58.5516C9.9229 57.9822 9.19897 57.5164 8.71129 57.5164C8.09278 57.5164 7.90981 57.2933 8.10646 56.7787C8.2615 56.3729 8.51583 56.2157 8.67164 56.4293C9.10669 57.0258 11.2312 57.0182 11.6146 56.4188C11.8565 56.0406 11.9574 56.0629 11.9625 56.4959C11.9662 56.8312 12.1783 56.976 12.4333 56.8177C13.3503 56.2485 12.8717 55.719 11.6217 55.9199C10.406 56.1153 10.3884 56.0921 11.2466 55.4233C11.7417 55.0374 12.4323 54.7217 12.7812 54.7217C13.1302 54.7217 13.281 54.5029 13.1165 54.2355C12.9519 53.9681 13.0285 53.4936 13.2867 53.1812C13.5448 52.8688 14.0243 51.568 14.3522 50.2904C14.9295 48.0414 14.9583 48.012 15.2593 49.365C15.5736 50.7782 15.6297 50.6126 15.8485 47.6266C15.8997 46.9266 16.2227 46.0881 16.5662 45.7634C17.0866 45.2714 17.1476 45.5614 16.932 47.5018C16.7897 48.7828 16.5318 50.1976 16.3588 50.646C16.145 51.2003 16.2669 51.4611 16.7401 51.4611C17.1227 51.4611 17.5601 51.1356 17.7121 50.7378C17.9673 50.0701 17.4454 45.1199 16.7878 41.9706C16.5859 41.0034 16.6613 40.7264 17.0593 40.9735C17.4176 41.1958 17.5786 41.0125 17.5193 40.4495C17.299 38.3557 17.6932 38.4073 18.0201 40.515C18.5433 43.8888 18.5353 49.5822 18.0047 51.4403C17.7168 52.4485 17.7103 53.1451 17.9873 53.3171C18.5996 53.6971 18.023 55.6532 17.2987 55.6532C16.9731 55.6532 16.5866 55.9676 16.4397 56.3519C16.2771 56.7775 16.4388 57.0506 16.8539 57.0506C17.2285 57.0506 17.5382 56.7886 17.5421 56.4683C17.5473 56.0399 17.6545 56.0531 17.9479 56.5181C18.409 57.249 19.0181 56.5548 18.772 55.5788C18.6854 55.2355 18.6947 55.0895 18.7927 55.2544C19.0288 55.6519 20.7815 55.1801 20.7815 54.719C20.7815 54.5212 20.4164 54.3884 19.9701 54.424C19.4595 54.4647 19.1418 54.1434 19.1129 53.5571C19.078 52.8482 19.1134 52.8204 19.2609 53.4407C19.4444 54.2124 20.3792 54.647 20.2628 53.9065C20.084 52.7692 20.4161 52.8039 21.0302 53.9868C21.7789 55.4285 21.2947 56.2875 20.012 55.7932C19.67 55.6614 19.3902 55.7569 19.3902 56.0056C19.3902 56.9084 21.4615 56.329 21.9817 55.2808C22.4119 54.4138 22.3467 53.8816 21.6396 52.4886C21.0486 51.3245 20.9359 50.7107 21.2912 50.5918C21.58 50.4951 21.9977 50.7035 22.2194 51.055C22.4951 51.492 22.6247 51.2069 22.6296 50.1527C22.6338 49.2821 22.4424 48.7319 22.1903 48.8884C21.943 49.0419 21.7562 48.5866 21.7715 47.8679C21.7867 47.1542 21.5507 45.5622 21.247 44.3302C20.9176 42.9941 20.8473 41.5843 21.0728 40.8367C21.3771 39.8281 21.4988 40.2201 21.696 42.8438C21.9029 45.5971 22.024 45.9595 22.4743 45.1728C22.7676 44.6605 23.0684 42.6692 23.1427 40.7478C23.2366 38.3207 23.5339 36.8769 24.1167 36.0181C25.202 34.4186 25.1773 34.0798 24.0281 34.8007C23.5179 35.1206 23.1005 35.7513 23.1005 36.202C23.1005 36.6528 22.7874 37.0215 22.4048 37.0215C22.0222 37.0215 21.7091 37.3642 21.7091 37.7831C21.7091 38.3341 21.4391 38.1998 20.7321 37.2971C19.9673 36.3207 19.4382 36.0856 18.2972 36.2153C17.047 36.3574 16.7985 36.6091 16.5525 37.9822L16.2657 39.5834L16.1984 37.7202C16.1199 35.5505 15.6977 33.7482 15.2779 33.7907C15.1164 33.807 14.2015 34.7646 13.245 35.9186C12.2884 37.0726 11.5057 37.7704 11.5057 37.4694C11.5057 37.1683 11.1994 37.04 10.8249 37.1843C10.4504 37.3286 10.0207 37.2462 9.86995 37.0012C9.71919 36.7562 9.81686 36.5558 10.087 36.5558C10.3571 36.5558 10.5539 36.0842 10.5244 35.5077C10.4839 34.7191 10.4181 34.6614 10.2585 35.2749C9.9496 36.4618 9.49965 36.2829 8.50115 34.5762C8.01408 33.7435 7.34298 32.7854 7.0098 32.4468C6.67659 32.1083 6.40399 31.4394 6.40399 30.9605C6.40399 30.4815 6.16857 29.9435 5.88084 29.7649C5.16781 29.3223 5.68352 24.6393 6.66232 22.6685C7.10787 21.7715 7.30332 20.6688 7.13566 19.998C6.97862 19.3696 7.05001 18.8553 7.29432 18.8553C7.78329 18.8553 8.51511 14.9774 8.3052 13.4987C8.23247 12.9863 7.87028 12.2262 7.50034 11.8095C6.90798 11.1423 6.92696 11.013 7.65939 10.7256C8.40011 10.435 8.34581 10.2821 7.16282 9.32736L5.83457 8.25542L4.26937 9.24683C3.40853 9.79209 2.56726 10.7402 2.39988 11.3537C2.23252 11.9672 1.6875 12.879 1.18874 13.3799C0.499084 14.0725 0.411568 14.4189 0.823297 14.8263C1.23191 15.2306 1.49923 15.1906 1.91321 14.6633C2.4928 13.925 4.25581 13.5431 3.82073 14.2501C3.68087 14.4773 3.27804 14.6633 2.92552 14.6633C2.05016 14.6633 1.74522 15.2732 2.22821 16.058C2.55018 16.5812 2.81523 16.4851 3.57357 15.57C4.09297 14.9432 4.52489 14.1683 4.53338 13.8481C4.55045 13.2036 5.244 13.1487 6.60508 13.684C7.22155 13.9265 7.33031 14.1432 6.95293 14.3775C6.651 14.5649 6.21309 14.5997 5.97981 14.4549C4.82706 13.7394 5.39789 16.66 6.57934 17.5224C7.0954 17.899 6.52962 18.8577 5.79688 18.8483C5.37703 18.8429 5.37916 18.7552 5.80574 18.4829C6.20785 18.2262 6.09546 17.9544 5.40937 17.5241C4.61991 17.0289 4.51662 17.0317 4.82119 17.5401C5.0983 18.0026 4.98902 17.9924 4.38398 17.4991C3.8163 17.0364 3.73589 16.7432 4.11258 16.5093C4.49975 16.269 4.50582 16.0889 4.13451 15.8585C3.8522 15.6832 3.59457 15.7094 3.56201 15.9167C3.26502 17.8074 3.39533 18.5041 4.14453 19.0312C4.61871 19.3648 4.85148 19.8056 4.66179 20.0108C4.4721 20.216 4.91126 20.2404 5.6377 20.0651C6.61249 19.8299 6.90616 19.9042 6.75872 20.3489C6.40739 21.4086 4.95769 21.3133 4.17119 20.1788C3.75542 19.579 2.62677 18.2264 1.66307 17.173C-0.354511 14.9677 -0.405804 14.7274 0.809695 13.1755C1.30405 12.5443 1.84399 11.4859 2.00952 10.8234C2.18757 10.1109 2.83701 9.39992 3.59953 9.08272C4.30848 8.78779 5.17604 8.00691 5.5275 7.34744C5.87892 6.68797 7.07805 5.75596 8.19226 5.27628C10.1889 4.4167 10.2397 4.41764 11.7282 5.34155C12.5588 5.8571 13.5547 6.27892 13.9412 6.27892C14.3277 6.27892 14.7532 6.69813 14.8866 7.21051C15.02 7.72288 15.3829 8.1421 15.6932 8.1421C16.13 8.1421 16.127 7.98461 15.6798 7.44341C15.3569 7.0527 15.3071 6.74471 15.5668 6.74471C16.1795 6.74471 17.0046 4.59069 17.1704 2.55791C17.2913 1.0771 17.4556 0.908292 19.0223 0.654852C21.0242 0.331017 21.4634 0.534327 21.9174 1.99481C22.1853 2.85663 22.3798 2.95984 22.9075 2.52004C23.2687 2.219 23.5642 2.17616 23.5642 2.42486C23.5642 2.67355 22.7447 3.20037 21.743 3.5955C20.0684 4.25619 19.9448 4.25249 20.2066 3.5497C20.454 2.88566 20.3887 2.86928 19.7088 3.42474C19.0325 3.97726 18.9263 3.95765 18.9263 3.28031C18.9263 2.67115 19.2361 2.54565 20.3177 2.71683C21.7903 2.94992 22.1091 2.53423 21.1017 1.69455C20.2363 0.973264 17.7499 1.73605 17.8288 2.69867C17.8628 3.11426 18.022 3.97948 18.1824 4.6213C18.4016 5.49858 18.315 5.72705 17.8335 5.54147C16.8596 5.1661 16.4972 7.24778 17.3682 8.2144C17.7674 8.65735 17.9846 9.29392 17.8511 9.62897C17.6931 10.0251 17.5954 9.95309 17.5716 9.42302C17.5515 8.9747 17.3326 8.60788 17.0853 8.60788C16.838 8.60788 16.6631 9.34151 16.6967 10.2382C16.7605 11.9438 17.485 12.3528 18.4257 11.2143C18.7478 10.8245 18.838 10.0246 18.649 9.2347L18.3317 7.90919L19.4908 8.97632L20.6498 10.0435L21.401 8.89201C22.0991 7.82198 22.0956 7.72566 21.3509 7.52956C20.9102 7.4135 21.2424 7.29421 22.0891 7.2645C23.4062 7.21829 23.6073 7.0597 23.4805 6.16717C23.3939 5.55791 22.9464 5.05607 22.4047 4.96086C21.4771 4.79781 21.4771 4.7978 22.4047 5.53947C23.1652 6.14761 23.1851 6.22964 22.5147 5.995C22.0651 5.83762 21.3503 5.99454 20.9264 6.34321C20.2639 6.88847 20.2722 6.79765 20.9857 5.69664C22.4318 3.46497 24.4917 4.29133 24.4917 7.10316C24.4917 8.4644 24.6302 8.65295 25.5352 8.52383C26.3757 8.40395 26.5788 8.07706 26.5788 6.84417C26.5788 4.71637 28.3799 3.64597 29.5591 5.07293C29.975 5.57618 29.9715 5.81132 29.5442 6.0765C29.1893 6.29682 29.1074 6.22597 29.3192 5.88178C29.8511 5.01749 28.2107 4.67318 27.4069 5.48039C26.2873 6.60492 26.9973 7.84175 28.5542 7.47866C29.2533 7.31561 29.5822 7.34709 29.285 7.54864C28.8822 7.82192 28.9098 8.14164 29.3936 8.80619C30.0195 9.66591 30.0749 9.66774 30.9664 8.85745C31.4746 8.39554 31.7604 7.78361 31.6014 7.49761C31.3942 7.12477 31.4733 7.12638 31.8807 7.50328C32.3282 7.9172 32.3033 8.46193 31.7637 10.0652C31.3867 11.1851 30.8721 12.1013 30.62 12.1013C30.368 12.1013 29.7277 12.6254 29.1973 13.2658C28.5677 14.0261 28.2275 14.1958 28.2174 13.7549C28.2062 13.2637 28.0628 13.2193 27.6918 13.5919C27.3208 13.9645 26.9384 13.86 26.2898 13.2086C25.5806 12.4963 25.2075 12.4152 24.468 12.8127C23.9566 13.0877 23.6627 13.5151 23.815 13.7626C23.9673 14.0101 24.2515 14.1136 24.4464 13.9926C24.6413 13.8716 24.8008 14.0815 24.8008 14.459C24.8008 14.9775 24.5479 14.9069 23.7676 14.1706C23.1765 13.6129 22.614 13.3914 22.4531 13.6529C22.2984 13.9043 21.7322 13.9945 21.1949 13.8534C20.3712 13.637 20.2583 13.3469 20.4754 12.0032C20.657 10.8792 20.5692 10.4681 20.1774 10.6081C19.8718 10.7173 19.6727 11.2618 19.7349 11.8181C19.8302 12.6701 19.7123 12.7567 18.9874 12.3671C18.3719 12.0363 17.8772 12.0907 17.251 12.5582C16.4009 13.1929 16.4065 13.2434 17.4456 14.2869C18.44 15.2856 18.5577 15.3053 19.1069 14.5645C19.6533 13.8275 19.7829 13.8239 20.8194 14.5162C21.4361 14.9282 22.2068 15.5961 22.532 16.0006C23.0182 16.6053 23.2859 16.6339 24.0393 16.1614C24.5432 15.8454 24.9554 15.7737 24.9554 16.0021C24.9554 17.0272 27.7009 16.199 29.0262 14.7741C30.5665 13.1181 31.2137 12.911 31.6096 13.9473C31.7598 14.3402 31.3987 15.0012 30.757 15.5081C29.974 16.1267 29.7213 16.6842 29.9046 17.3884C30.219 18.5957 30.2637 18.6015 31.4431 17.5872C32.0674 17.0505 32.376 16.2119 32.376 15.0529C32.376 14.1002 32.5854 13.1907 32.8414 13.0318C33.4696 12.6418 33.3288 7.14504 32.6694 6.32011C32.3805 5.95847 32.1228 5.32964 32.0968 4.92272C31.9662 2.87825 31.8762 2.55256 31.4418 2.55256C31.1738 2.55256 31.0769 3.154 31.2165 3.94995C31.3513 4.71851 31.2723 5.34734 31.0409 5.34734C30.3701 5.34734 30.0523 4.03334 30.6628 3.78395C31.0323 3.63298 30.9998 3.5455 30.5649 3.52096C30.0595 3.49245 30.0996 3.2774 30.744 2.5623C31.501 1.72224 31.5073 1.61446 30.8159 1.34797C30.3985 1.18713 29.7575 1.17099 29.3913 1.31211C29.0252 1.45322 28.6417 1.31843 28.5392 1.01259C28.4005 0.598997 28.1551 0.620316 27.5816 1.09579C27.1575 1.44739 26.8105 1.53771 26.8105 1.29649C26.8105 1.05526 25.9757 0.862788 24.9554 0.868773C23.935 0.874735 23.1002 1.07212 23.1002 1.30736C23.1002 1.5426 22.7871 1.47413 22.4045 1.1552C21.1363 0.0981277 21.6743 -0.107986 25.3032 0.0448883C31.8774 0.321799 32.2192 0.455894 32.626 2.91829C32.7832 3.87 33.2609 5.33932 33.6875 6.18348C34.5857 7.96081 35.4481 7.93356 38.2261 6.04025C39.1611 5.40299 40.1256 4.88159 40.3695 4.88159C41.3213 4.88159 43.3419 6.42556 44.0797 7.7166C44.5243 8.49458 45.2461 9.07375 45.7712 9.07375C46.9977 9.07375 48.1448 10.2931 48.1448 11.5967C48.1448 12.1792 48.5623 13.0351 49.0724 13.4988C49.5826 13.9625 50 14.5979 50 14.9108C50 15.2237 48.6624 16.8979 47.0275 18.6311C44.9755 20.8065 43.8265 21.6943 43.3172 21.4981C42.9114 21.3417 42.5794 20.8927 42.5794 20.5004C42.5794 20.1081 42.3707 19.7871 42.1156 19.7871C41.474 19.7871 41.5309 20.1004 42.42 21.4631C43.4258 23.0048 43.9592 27.1877 43.3943 29.1031C43.281 29.4873 43.0194 30.4306 42.8131 31.1991C42.6067 31.9677 42.0524 33.0964 41.5811 33.7074C41.1098 34.3184 40.7242 35.0038 40.7242 35.2305C40.7242 35.4572 40.1839 36.5023 39.5236 37.5528C38.639 38.9602 38.3902 39.8466 38.5782 40.9206C38.7186 41.7223 38.6542 43.1119 38.435 44.0085C38.1008 45.3752 38.0287 45.055 37.9889 42.0289C37.9274 37.3528 37.2043 37.3304 37.0843 42.001C36.96 46.8346 36.5501 46.9873 36.5501 42.1999C36.5501 38.4563 36.5147 38.3362 34.9268 36.6942L33.3036 35.0155L33.22 38.2311C33.1524 40.8318 33.1032 41.0236 32.9627 39.2342C32.8419 37.6958 32.5847 37.0216 32.1187 37.0216C31.75 37.0216 31.4484 36.7072 31.4484 36.3229C31.4484 35.4025 30.5205 35.4606 29.3378 36.4549C28.5694 37.1009 28.4248 37.6554 28.585 39.341C28.6941 40.4885 28.5082 43.2134 28.172 45.3963L27.5606 49.3652L26.9982 47.0362C26.6888 45.7553 26.4441 43.5544 26.4544 42.1454C26.4646 40.7363 26.5531 40.1075 26.6509 40.748C27.2917 44.9434 27.3737 45.2015 27.7609 44.2415C28.2099 43.1283 28.2969 39.9867 27.918 38.5681C27.7596 37.9749 27.3082 37.5781 26.8327 37.614C26.2622 37.6572 26.09 37.9497 26.2572 38.5918C26.4413 39.2987 26.3199 39.4402 25.7256 39.2111C24.0927 38.5818 23.5654 39.3269 23.531 42.3119C23.5128 43.8856 23.3416 46.8501 23.1504 48.8996C22.9588 50.9539 22.9846 52.7496 23.2079 52.9015C23.4307 53.0531 23.5772 53.3675 23.5335 53.6002C23.3022 54.8329 23.6835 55.1879 25.2388 55.1879C26.8823 55.1879 26.9083 55.1591 26.6267 53.6514C26.4353 52.6269 26.57 51.812 27.0307 51.2059C27.6773 50.3554 27.7036 50.3943 27.44 51.8108C27.2503 52.8306 27.3388 53.3247 27.7113 53.3247C28.0659 53.3247 28.151 53.6835 27.9484 54.3245C27.6804 55.1726 27.7811 55.2852 28.6124 55.0669C29.1513 54.9253 29.7113 55.0029 29.8567 55.2392C30.0021 55.4755 30.3218 55.5443 30.5671 55.392C30.8125 55.2397 31.7116 55.0499 32.5653 54.9703C33.8972 54.8459 34.0845 54.9516 33.8857 55.7151C33.7024 56.4191 33.5185 56.4918 33.0044 56.0634C32.489 55.6338 32.4106 55.6679 32.6246 56.2282C32.7731 56.6167 33.4079 56.9346 34.0353 56.9346C34.8136 56.9346 35.046 56.7681 34.7668 56.4105C34.5417 56.1223 34.3242 55.5197 34.2833 55.0714C34.2425 54.623 34.1693 53.8719 34.1207 53.4023C34.0722 52.9326 33.761 52.5483 33.4294 52.5483C33.0434 52.5483 32.9209 52.8977 33.089 53.5187C33.2929 54.2722 33.1158 54.1829 32.2966 53.1189C31.7163 52.3652 31.2032 51.0028 31.1565 50.0912C31.1097 49.1796 30.9303 47.3858 30.7577 46.1048C30.5715 44.7233 30.6488 43.3021 30.9478 42.6114C31.3577 41.6643 31.3993 41.9251 31.171 44.0087C30.8302 47.1176 31.7036 46.7431 32.3353 43.5095L32.7382 41.4469L32.789 43.4414C32.8169 44.5385 33.1721 46.2154 33.5783 47.1678C33.9844 48.1203 34.6293 49.9314 35.0114 51.1925C35.7697 53.6956 36.88 55.6536 37.541 55.6536C37.7722 55.6536 38.1963 55.1358 38.4835 54.5028C38.9347 53.5083 38.8546 53.2228 37.8938 52.4C37.2272 51.8292 37.0606 51.4973 37.4778 51.5712C38.2252 51.7035 38.2588 51.2467 37.7596 47.7351C37.5213 46.0582 37.6289 46.2439 38.2979 48.6635C38.8428 50.6342 39.3974 51.739 39.8897 51.8342C40.3053 51.9145 40.7518 52.259 40.882 52.5997C41.0453 53.0272 40.8355 53.1448 40.205 52.9792C39.309 52.7439 39.3074 52.7711 40.1237 54.38C40.5816 55.2823 41.1133 55.9254 41.3053 55.8089C41.4973 55.6924 41.4109 55.1382 41.1134 54.5773C40.6242 53.6552 40.6463 53.6187 41.344 54.1968C41.7684 54.5484 42.1156 55.1248 42.1156 55.4777C42.1156 55.8306 42.4145 56.1194 42.7797 56.1194C43.145 56.1194 43.9041 56.7687 44.4668 57.5622C45.3472 58.804 45.4881 59.6062 45.4781 63.3213C45.4693 66.556 45.2721 67.9353 44.6908 68.8265C43.8724 70.0809 42.7578 70.7251 42.1059 70.3204C41.8914 70.1873 41.5711 70.3138 41.394 70.6016C41.1655 70.9729 40.9456 70.9414 40.6359 70.4927C40.332 70.0524 40.2888 70.1786 40.4932 70.9088C40.9495 72.5379 40.3558 73.6955 38.7809 74.2469C37.2754 74.774 20.5781 74.8244 13.4585 74.3234L13.4587 74.3223ZM16.2781 72.8873C16.1446 72.3749 15.9555 71.9557 15.8577 71.9557C15.7599 71.9557 15.6799 72.3749 15.6799 72.8873C15.6799 73.3997 15.8691 73.8189 16.1003 73.8189C16.3315 73.8189 16.4115 73.3997 16.2781 72.8873ZM17.8001 72.9649C17.8001 72.4953 17.5604 72.111 17.2674 72.111C16.9745 72.111 16.8348 72.4953 16.9571 72.9649C17.0794 73.4346 17.3191 73.8189 17.4898 73.8189C17.6604 73.8189 17.8001 73.4346 17.8001 72.9649ZM19.2336 73.1492C19.0688 72.7181 19.3403 72.4088 19.9956 72.2811C20.8371 72.117 20.7925 72.0716 19.738 72.0191C18.7508 71.9701 18.4626 72.1662 18.4626 72.8873C18.4626 73.3997 18.6936 73.8189 18.976 73.8189C19.2584 73.8189 19.3743 73.5175 19.2336 73.1492ZM20.7816 73.3531C20.7816 73.0969 20.5728 72.8873 20.3178 72.8873C20.0627 72.8873 19.854 73.0969 19.854 73.3531C19.854 73.6093 20.0627 73.8189 20.3178 73.8189C20.5728 73.8189 20.7816 73.6093 20.7816 73.3531ZM23.5643 73.2949C23.5643 73.0707 23.0425 72.8873 22.4048 72.8873C21.7671 72.8873 21.2453 73.0707 21.2453 73.2949C21.2453 73.519 21.7671 73.7024 22.4048 73.7024C23.0425 73.7024 23.5643 73.519 23.5643 73.2949ZM25.8832 73.3531C25.8832 73.0969 25.4658 72.8873 24.9557 72.8873C24.4455 72.8873 24.0281 73.0969 24.0281 73.3531C24.0281 73.6093 24.4455 73.8189 24.9557 73.8189C25.4658 73.8189 25.8832 73.6093 25.8832 73.3531ZM32.3763 73.2906C32.3763 73.0688 31.0197 72.8873 29.3617 72.8873C27.7036 72.8873 26.347 73.0622 26.347 73.276C26.347 73.4899 27.7036 73.6714 29.3617 73.6794C31.0197 73.6874 32.3763 73.5125 32.3763 73.2906ZM33.7677 73.3531C33.7677 73.0969 33.559 72.8873 33.3039 72.8873C33.0488 72.8873 32.8401 73.0969 32.8401 73.3531C32.8401 73.6093 33.0488 73.8189 33.3039 73.8189C33.559 73.8189 33.7677 73.6093 33.7677 73.3531ZM35.159 73.3531C35.159 73.0969 34.9503 72.8873 34.6952 72.8873C34.4402 72.8873 34.2315 73.0969 34.2315 73.3531C34.2315 73.6093 34.4402 73.8189 34.6952 73.8189C34.9503 73.8189 35.159 73.6093 35.159 73.3531ZM37.0142 73.3531C37.0142 73.0969 36.8055 72.8873 36.5504 72.8873C36.2953 72.8873 36.0866 73.0969 36.0866 73.3531C36.0866 73.6093 36.2953 73.8189 36.5504 73.8189C36.8055 73.8189 37.0142 73.6093 37.0142 73.3531ZM26.463 72.0803C24.4272 71.9616 23.5643 71.7247 23.5643 71.2846C23.5643 70.5992 22.4306 69.9889 21.9864 70.4351C21.4583 70.9655 21.7128 71.4901 22.5208 71.5363C23.047 71.5664 22.9247 71.7046 22.1729 71.9292C21.4689 72.1396 22.6531 72.2706 25.1876 72.2626C28.2149 72.253 28.5653 72.203 26.463 72.0803ZM30.8593 72.1401C30.7052 71.9853 30.3052 71.9687 29.9704 72.1033C29.6004 72.252 29.7103 72.3624 30.2506 72.3847C30.7395 72.405 31.0135 72.2948 30.8593 72.1401ZM33.8836 72.113C33.5648 71.9838 33.043 71.9838 32.7241 72.113C32.4053 72.2422 32.6662 72.3479 33.3039 72.3479C33.9416 72.3479 34.2025 72.2422 33.8836 72.113ZM17.542 70.9077C17.5466 70.5471 17.6788 70.5027 17.8898 70.7912C18.4794 71.5972 21.0987 71.6136 21.4045 70.8132C21.6323 70.217 21.2419 70.0925 19.1436 70.0925C17.1983 70.0925 16.6073 70.2553 16.6073 70.7912C16.6073 71.1755 16.816 71.4899 17.0711 71.4899C17.3262 71.4899 17.5381 71.2279 17.542 70.9077ZM24.9557 71.0241C24.9557 70.7679 24.747 70.5583 24.4919 70.5583C24.2368 70.5583 24.0281 70.7679 24.0281 71.0241C24.0281 71.2803 24.2368 71.4899 24.4919 71.4899C24.747 71.4899 24.9557 71.2803 24.9557 71.0241ZM26.347 71.0241C26.347 70.7679 26.1383 70.5583 25.8832 70.5583C25.6282 70.5583 25.4194 70.7679 25.4194 71.0241C25.4194 71.2803 25.6282 71.4899 25.8832 71.4899C26.1383 71.4899 26.347 71.2803 26.347 71.0241ZM30.326 70.7195C30.1536 70.2683 30.5374 70.0925 31.6951 70.0925C32.6691 70.0925 33.3067 69.8628 33.3109 69.5102C33.3164 69.0618 33.4057 69.0668 33.6997 69.5323C34.0046 70.0149 34.2012 69.9915 34.677 69.4158C35.4599 68.4683 36.0866 68.4999 36.0866 69.487C36.0866 70.4809 36.8375 69.7554 37.1472 68.4622C37.3636 67.5585 37.3719 67.5595 37.4241 68.4961C37.4697 69.3142 37.7917 69.4665 39.5344 69.4942C41.6536 69.5278 42.6816 68.6112 41.6672 67.5925C41.3378 67.2616 41.186 67.4677 41.1811 68.2526C41.176 69.0794 41.063 69.2178 40.7712 68.7551C40.324 68.0461 41.6128 65.3552 42.2193 65.7316C42.4174 65.8546 42.5796 66.5841 42.5796 67.3527C42.5796 68.9408 43.4808 68.7567 43.5534 67.1538C43.596 66.2152 43.626 66.2267 43.9275 67.2977L44.2553 68.4622L44.5706 67.2977C45.0062 65.6888 44.9188 60.7435 44.4348 59.6121C44.1526 58.9525 44.0027 59.6326 43.9217 61.9411L43.8072 65.2016L43.5072 61.9411C43.3422 60.1477 43.1672 58.9949 43.1182 59.3792C43.0391 60.0002 42.9793 60.0002 42.5796 59.3792C42.2632 58.8875 42.1237 59.5774 42.1088 61.7082C42.0928 63.9946 41.9719 64.5363 41.6149 63.9207C41.3277 63.4255 40.5853 63.1055 39.7235 63.1055C38.442 63.1055 38.3331 62.9931 38.5959 61.9411C38.8344 60.9869 38.7178 60.7766 37.9505 60.7766C37.4355 60.7766 37.0141 60.9637 37.0141 61.1925C37.0141 61.4213 36.6606 61.7447 36.2285 61.9112C35.5226 62.1833 35.5273 62.1204 36.274 61.2917C36.731 60.7845 36.9573 60.1293 36.7767 59.8358C36.5961 59.5424 37.0974 59.6393 37.8907 60.0513C38.7658 60.5058 39.3331 61.1622 39.3331 61.7201C39.3331 62.7105 40.6853 63.025 40.7837 62.0575C40.8162 61.7373 40.8934 60.9761 40.9552 60.3659C41.046 59.469 40.7263 59.122 39.2857 58.5536C37.3656 57.7962 37.2247 57.0992 39.032 57.2985C39.9289 57.3974 40.1447 57.2062 40.1447 56.3128C40.1447 54.9141 39.098 53.9168 38.7061 54.9423C38.5568 55.3331 38.6368 55.6529 38.8839 55.6529C39.1309 55.6529 39.3331 55.9929 39.3331 56.4085C39.3331 56.9287 39.1524 57.0321 38.7534 56.7403C37.915 56.1272 35.6228 55.9685 35.6228 56.5236C35.6228 57.2693 36.4464 57.5834 36.706 56.9367C36.8352 56.6148 36.9409 56.9804 36.9409 57.7489C36.9409 58.5175 36.8327 58.8755 36.7005 58.5446C36.517 58.0852 36.3077 58.07 35.8151 58.4806C35.3092 58.9023 35.0983 58.8311 34.838 58.1507C34.5423 57.378 34.4707 57.4105 34.183 58.4476C33.8764 59.5531 33.8577 59.559 33.8138 58.5641C33.7788 57.7691 33.4877 57.516 32.6081 57.516C31.9704 57.516 31.4487 57.5834 31.4487 57.6658C31.4487 58.274 33.2333 61.3117 33.5726 61.281C33.8074 61.2598 34.0256 61.452 34.0575 61.7082C34.0894 61.9644 34.1624 62.2788 34.2198 62.4069C34.2772 62.535 34.3444 63.2162 34.3691 63.9207C34.3938 64.6252 34.8947 65.7235 35.4822 66.3614C36.6284 67.6059 36.8301 68.2293 36.0865 68.2293C35.8315 68.2293 35.6227 67.9904 35.6227 67.6984C35.6227 67.4064 35.2825 66.9177 34.8667 66.6123C34.4509 66.307 33.9589 65.2358 33.7733 64.232L33.4359 62.4069L33.0704 64.4382C32.8208 65.8259 32.1622 67.0425 30.9918 68.2781C30.0496 69.2729 29.3585 70.167 29.4561 70.2651C29.5536 70.3631 29.3006 70.5715 28.8937 70.7283C28.4868 70.8851 28.2694 70.8258 28.4106 70.5964C28.5517 70.367 28.2495 70.2891 27.7389 70.4232C26.1771 70.8334 26.7046 71.3466 28.6881 71.3466C30.071 71.3466 30.5025 71.1814 30.326 70.7195ZM39.5206 67.3697C39.7379 67.0168 39.4437 66.832 38.6647 66.832C37.4172 66.832 37.1626 66.1401 37.9791 64.9688C38.3604 64.4219 38.4025 64.4977 38.1727 65.3181C37.9231 66.2094 38.0573 66.3662 39.0699 66.3662C40.3084 66.3662 40.6519 66.9999 39.7252 67.5751C39.3934 67.7811 39.3156 67.7029 39.5206 67.3697ZM34.927 59.8448C35.0847 59.5886 35.3057 59.379 35.4182 59.379C35.5307 59.379 35.6227 59.5886 35.6227 59.8448C35.6227 60.101 35.4017 60.3106 35.1316 60.3106C34.8614 60.3106 34.7694 60.101 34.927 59.8448ZM32.84 70.9247C32.84 70.723 32.4226 70.558 31.9124 70.558C31.4022 70.558 30.9848 70.7546 30.9848 70.9949C30.9848 71.2351 31.4022 71.4001 31.9124 71.3615C32.4226 71.3229 32.84 71.1263 32.84 70.9247ZM35.1589 71.0238C35.1589 70.7676 34.9502 70.558 34.6951 70.558C34.4401 70.558 34.2314 70.7676 34.2314 71.0238C34.2314 71.28 34.4401 71.4896 34.6951 71.4896C34.9502 71.4896 35.1589 71.28 35.1589 71.0238ZM39.7477 70.7626C39.8597 70.6501 39.1738 70.558 38.2235 70.558C37.2731 70.558 36.6156 70.7531 36.7624 70.9916C37.0107 71.3952 39.2921 71.2202 39.7477 70.7626ZM13.4972 69.7649C14.315 69.764 14.6188 69.8524 14.1724 69.9617C13.0598 70.2342 13.146 71.0238 14.2883 71.0238C14.7985 71.0238 15.2159 70.7351 15.2159 70.3821C15.2159 70.0292 15.5631 69.4528 15.9875 69.1012C16.685 68.5233 16.7073 68.5596 16.2194 69.4793C15.4333 70.9612 15.5591 71.404 16.4167 70.1742C17.1593 69.1094 16.9846 67.474 16.1815 67.9725C15.9437 68.1201 15.2639 68.0554 14.6709 67.8287C10.6574 66.2947 9.44583 66.2433 7.88611 67.5409C7.80859 67.6054 8.17304 68.363 8.69602 69.2245C9.219 70.086 9.65083 70.4765 9.6557 70.0922C9.66354 69.4712 9.71449 69.4712 10.1141 70.0922C10.4138 70.558 10.5661 70.5968 10.5708 70.2086C10.5745 69.8884 10.7866 69.6264 11.0417 69.6264C11.2968 69.6264 11.4808 69.7836 11.4506 69.9758C11.3275 70.7582 11.6273 71.2033 11.8117 70.5118C11.9412 70.0262 12.5279 69.7663 13.4972 69.7649ZM8.30789 70.156C8.56855 70.5692 8.71091 70.5992 8.71554 70.2419C8.71925 69.94 8.43209 69.4012 8.07699 69.0445C7.72188 68.6878 7.32867 67.9917 7.20321 67.4974C7.00067 66.6995 6.96907 66.7131 6.9213 67.6193C6.89171 68.1806 7.06709 68.7638 7.31104 68.9152C7.55498 69.0666 7.69353 69.4457 7.61894 69.7578C7.54434 70.0698 7.57873 70.1442 7.69534 69.9231C7.81195 69.7019 8.08759 69.8067 8.30789 70.156ZM29.1766 69.0349C33.616 66.0563 33.2241 59.1316 28.4885 56.8743C23.7815 54.631 18.4595 57.9135 18.4637 63.0578C18.4683 68.6376 24.6384 72.0803 29.1766 69.0349ZM22.2842 68.6973C19.0346 66.7075 18.0109 62.7556 19.9787 59.7969C21.4031 57.6555 23.7712 56.4751 26.0748 56.7583C32.4496 57.5421 33.898 65.8767 28.169 68.8103C26.0869 69.8766 24.1495 69.8396 22.2842 68.6973ZM27.4573 68.7134C31.1743 67.2941 32.4198 62.5034 29.8982 59.3262C28.4799 57.5391 25.3843 56.7363 23.1561 57.5779C20.3566 58.6352 18.8305 62.0882 19.8251 65.1149C20.877 68.316 24.2876 69.924 27.4573 68.7134ZM24.2012 63.8193C24.0576 63.4434 24.0476 62.867 24.1791 62.5383C24.3106 62.2097 24.4346 62.4123 24.4547 62.9888C24.4752 63.5737 24.7866 64.0368 25.1597 64.0368C26.2619 64.0368 26.5482 63.008 25.633 62.3359C25.1627 61.9905 25.0009 61.7078 25.2735 61.7078C25.5461 61.7078 26.029 62.0222 26.3465 62.4065C26.8072 62.9639 26.8072 63.2465 26.3465 63.8039C25.6106 64.6945 24.5385 64.7021 24.2012 63.8193ZM24.9552 63.1052C24.9552 62.849 25.1639 62.6394 25.4189 62.6394C25.674 62.6394 25.8827 62.849 25.8827 63.1052C25.8827 63.3614 25.674 63.571 25.4189 63.571C25.1639 63.571 24.9552 63.3614 24.9552 63.1052ZM4.67178 58.852C4.47646 58.6566 4.28681 60.1101 4.25033 62.082L4.18402 65.6671L4.60546 62.4371C4.83726 60.6606 4.8671 59.0473 4.67178 58.852ZM41.6516 57.0499C41.6516 56.7937 41.4306 56.5841 41.1604 56.5841C40.8903 56.5841 40.7983 56.7937 40.9559 57.0499C41.1136 57.3061 41.3346 57.5157 41.4471 57.5157C41.5595 57.5157 41.6516 57.3061 41.6516 57.0499ZM14.4707 56.3122C14.6441 55.8586 14.5404 55.6456 14.2015 55.7591C13.5082 55.9912 13.1265 57.0499 13.7361 57.0499C13.9851 57.0499 14.3157 56.7179 14.4707 56.3122ZM16.0563 56.1474C16.1723 55.798 15.9983 55.6234 15.6505 55.7398C15.3157 55.8519 14.9505 56.2187 14.8389 56.5549C14.7229 56.9043 14.8968 57.079 15.2447 56.9625C15.5795 56.8504 15.9447 56.4836 16.0563 56.1474ZM31.9281 56.3703C31.4114 55.745 29.8096 55.726 29.255 56.3387C29.0585 56.5558 29.1586 56.5826 29.4775 56.3983C29.7963 56.2141 30.0572 56.2591 30.0572 56.4983C30.0572 56.7376 30.5829 56.9334 31.2254 56.9334C32.0862 56.9334 32.2711 56.7852 31.9281 56.3703ZM35.4757 54.6335C35.3277 54.2619 35.2178 54.3723 35.1955 54.915C35.1754 55.406 35.285 55.6811 35.4391 55.5263C35.5932 55.3715 35.6097 54.9698 35.4757 54.6335ZM17.3276 54.7607C17.1834 54.5263 17.3276 54.2285 17.6481 54.0988C18.1531 53.8943 16.9519 53.6037 16.0753 53.7182C15.9101 53.7398 15.8761 53.3691 15.9997 52.8944C16.1233 52.4197 15.9621 51.8684 15.6415 51.6694C15.2309 51.4145 15.1461 51.5367 15.3546 52.0826C15.548 52.5887 15.4144 52.8577 14.9696 52.8577C14.595 52.8577 14.2885 53.1721 14.2885 53.5564C14.2885 53.9445 14.7008 54.2551 15.2161 54.2551C15.7263 54.2551 16.1437 54.4647 16.1437 54.7209C16.1437 54.9771 16.4691 55.1867 16.8667 55.1867C17.2644 55.1867 17.4718 54.995 17.3276 54.7607ZM33.0923 49.4198C32.604 45.7229 32.0389 45.6963 31.9112 49.3643C31.8042 52.4339 31.7969 52.4073 32.6587 52.0751C33.2697 51.8396 33.3483 51.3582 33.0923 49.4198ZM34.0748 49.4807C33.9461 49.1605 33.8409 49.4225 33.8409 50.063C33.8409 50.7034 33.9461 50.9655 34.0748 50.6452C34.2034 50.325 34.2034 49.801 34.0748 49.4807ZM38.5789 36.0164C38.4831 35.8483 37.9522 35.8296 37.3993 35.9748C36.5591 36.1955 36.4494 36.0927 36.7315 35.3489C36.9952 34.6537 36.9462 34.5814 36.5076 35.0185C36.0686 35.456 36.1891 35.8322 37.0598 36.7419C38.0416 37.7676 38.208 37.8117 38.4634 37.1138C38.6228 36.6783 38.6748 36.1845 38.5789 36.0164ZM25.4194 36.7604C25.4194 36.361 25.2107 36.1637 24.9556 36.322C24.7005 36.4804 24.4918 36.8072 24.4918 37.0482C24.4918 37.2893 24.7005 37.4865 24.9556 37.4865C25.2107 37.4865 25.4194 37.1597 25.4194 36.7604ZM26.9491 36.1044C26.6463 34.9416 25.4194 33.8268 25.4194 34.7145C25.4194 35.2228 26.7071 37.0208 27.0711 37.0208C27.1352 37.0208 27.0803 36.6084 26.9491 36.1044ZM12.4399 35.1618C12.0111 34.8956 12.0199 34.5978 12.4784 33.8604C12.9635 33.0803 12.9609 32.7687 12.4644 32.1677C12.1296 31.7627 11.6403 31.4312 11.3769 31.4312C11.1135 31.4312 11.2439 31.8151 11.6666 32.2842C12.5053 33.215 12.2644 33.8447 11.223 33.4434C10.7424 33.2581 10.6554 33.4221 10.8972 34.0577C11.3583 35.2703 12.1284 36.0359 12.5986 35.7492C12.8171 35.616 12.7457 35.3516 12.4399 35.1618ZM22.1725 34.1369C22.1725 33.5419 21.347 33.6984 21.0883 34.3424C20.9443 34.7009 20.8403 34.622 20.8178 34.137C20.7976 33.7038 20.9898 33.2198 21.2449 33.0615C21.5 32.9032 21.7087 32.5315 21.7087 32.2355C21.7087 31.9154 21.4074 32 20.9649 32.4444C20.4172 32.9945 20.3098 33.597 20.5577 34.7304C20.873 36.1719 20.9348 36.2138 21.5334 35.3916C21.8849 34.9088 22.1725 34.3442 22.1725 34.1369ZM28.2018 34.6643C28.2018 34.4232 27.9931 34.226 27.738 34.226C27.4829 34.226 27.2742 34.5528 27.2742 34.9521C27.2742 35.3515 27.4829 35.5488 27.738 35.3904C27.9931 35.2321 28.2018 34.9053 28.2018 34.6643ZM19.3828 33.6162C19.3865 33.409 19.1812 33.3689 18.9261 33.5273C18.671 33.6856 18.4655 34.1696 18.4694 34.6028C18.4756 35.2816 18.5387 35.2939 18.9261 34.6918C19.1734 34.3075 19.3789 33.8235 19.3828 33.6162ZM29.787 33.5886C29.2282 31.7257 28.6164 31.5939 28.735 33.3619C28.8149 34.5538 29.0324 34.987 29.4668 34.8196C29.8574 34.6691 29.9753 34.2162 29.787 33.5886ZM39.81 33.7602C40.3611 32.695 40.3467 32.6502 39.6409 33.2349C39.2165 33.5865 38.8693 34.1979 38.8693 34.5935C38.8693 35.4393 39.0019 35.3217 39.81 33.7602ZM14.2885 33.7602C14.2885 33.2478 14.0798 32.8286 13.8248 32.8286C13.5697 32.8286 13.361 33.2478 13.361 33.7602C13.361 34.2726 13.5697 34.6918 13.8248 34.6918C14.0798 34.6918 14.2885 34.2726 14.2885 33.7602ZM17.9989 33.7327C17.9989 33.4916 17.7902 33.2944 17.5351 33.2944C17.28 33.2944 17.0713 33.6212 17.0713 34.0206C17.0713 34.42 17.28 34.6172 17.5351 34.4589C17.7902 34.3005 17.9989 33.9737 17.9989 33.7327ZM25.3035 32.4772C25.6224 32.3716 25.8833 32.6171 25.8833 33.0227C25.8833 33.4283 26.1963 33.7602 26.579 33.7602C26.9616 33.7602 27.2747 33.5579 27.2747 33.3108C27.2747 32.7869 25.7584 31.897 24.8659 31.897C24.0746 31.897 22.9773 33.6488 23.3695 34.2861C23.5439 34.5696 23.8907 34.333 24.1968 33.7217C24.4867 33.1429 24.9847 32.5829 25.3035 32.4772ZM32.6931 33.6729C32.5451 33.3013 32.4352 33.4117 32.4129 33.9543C32.3928 34.4453 32.5024 34.7204 32.6565 34.5657C32.8106 34.4109 32.8271 34.0091 32.6931 33.6729ZM34.6952 33.576C34.6952 33.2733 35.1127 32.2033 35.6228 31.1983C36.133 30.1933 36.5504 29.0886 36.5504 28.7433C36.5504 28.3981 36.7388 28.2325 36.969 28.3755C37.4182 28.6543 38.57 25.8516 38.171 25.4507C37.7927 25.0708 36.604 26.9437 36.8915 27.4668C37.0338 27.7258 36.8692 27.6757 36.5257 27.3554C35.5598 26.4551 34.209 26.612 34.5216 27.5883C34.7371 28.261 34.6984 28.2837 34.3004 27.7183C34.0351 27.3414 33.6811 27.1706 33.5137 27.3388C33.3463 27.507 33.5436 28.124 33.9523 28.7099C34.3609 29.2959 34.6953 29.5066 34.6953 29.1783C34.6953 28.85 34.876 28.6935 35.0968 28.8306C35.5993 29.1425 35.1983 31.4311 34.6412 31.4311C34.4158 31.4311 34.2315 31.838 34.2315 32.3352C34.2315 32.8325 34.0228 33.3689 33.7677 33.5272C33.0369 33.9808 33.2271 34.6921 33.9996 34.3943C34.3822 34.2469 34.6952 33.8787 34.6952 33.576ZM36.5196 32.5957C36.544 32.8519 36.8404 32.5375 37.1782 31.897C37.8242 30.6719 37.7178 29.83 36.9751 30.291C36.4672 30.6063 35.149 33.6229 35.18 34.3994C35.1915 34.6883 35.4876 34.2959 35.838 33.5273C36.1884 32.7588 36.4951 32.3395 36.5196 32.5957ZM9.85027 33.0455C10.5789 31.9287 10.5693 31.7997 9.67171 30.6537C9.00919 29.8077 8.72298 29.6638 8.72298 30.1764C8.72298 30.5801 8.93169 31.04 9.18677 31.1983C10.0099 31.7092 9.67904 32.4346 8.75696 32.1407C7.94788 31.8828 7.91495 31.9676 8.40912 33.0372C8.70928 33.687 8.98306 34.2203 9.01747 34.2223C9.05193 34.2241 9.42666 33.6948 9.85027 33.0455ZM31.7291 32.9547C31.2576 32.4813 30.8687 33.1941 31.2555 33.8227C31.5477 34.2975 31.6569 34.2979 31.814 33.8246C31.9214 33.5009 31.8832 33.1095 31.7291 32.9547ZM38.8529 31.7235C38.8619 31.5 38.5563 31.5781 38.1736 31.897C37.791 32.2159 37.4854 32.9228 37.4944 33.4678C37.5098 34.4013 37.5493 34.3912 38.1736 33.2943C38.5382 32.6539 38.8438 31.947 38.8529 31.7235ZM17.897 31.9708C18.1175 31.3064 17.2365 31.2515 16.8347 31.9046C16.6744 32.165 16.3491 32.2574 16.1116 32.11C15.8742 31.9626 15.6799 32.0627 15.6799 32.3324C15.6799 32.9848 17.6681 32.6605 17.897 31.9708ZM19.2524 30.7335C19.2271 29.8363 19.0613 29.1022 18.8841 29.1022C18.3585 29.1022 17.9067 30.7017 18.3868 30.8624C18.6294 30.9436 18.7129 31.452 18.5722 31.9922C18.4099 32.6153 18.4959 32.8629 18.8075 32.6695C19.0775 32.5019 19.2777 31.6307 19.2524 30.7335ZM33.7676 32.1299C33.7676 31.7456 33.5655 31.4312 33.3184 31.4312C33.0713 31.4312 32.9893 31.7456 33.1361 32.1299C33.2829 32.5142 33.4851 32.8286 33.5854 32.8286C33.6856 32.8286 33.7676 32.5142 33.7676 32.1299ZM14.7522 31.9245C14.7522 31.6834 14.5435 31.3566 14.2885 31.1983C14.0334 31.04 13.8247 31.2372 13.8247 31.6366C13.8247 32.036 14.0334 32.3628 14.2885 32.3628C14.5435 32.3628 14.7522 32.1656 14.7522 31.9245ZM24.3225 31.1743C25.5594 29.834 25.672 29.5163 24.8508 29.6845C24.2749 29.8025 22.6365 31.58 22.6365 32.0869C22.6365 32.6613 23.2636 32.3219 24.3225 31.1743ZM30.4682 31.7806C30.4168 31.4603 30.5384 30.8208 30.7385 30.3595C30.9921 29.7745 30.785 29.1816 30.0544 28.4004C29.4781 27.7843 28.8777 27.2958 28.7203 27.3148C27.5738 27.4532 27.2618 27.2134 27.8147 26.6189C28.2905 26.1074 28.5669 26.1889 29.3935 27.0847C30.4687 28.2498 30.9849 28.451 30.9849 27.7048C30.9849 27.0735 28.9932 25.111 28.515 25.2711C28.3045 25.3415 28.2651 24.9788 28.4275 24.4649C28.7531 23.4346 27.4227 21.2225 26.4629 21.1983C25.5934 21.1763 25.7641 22.022 26.8107 22.922C27.3209 23.3607 27.7383 23.9992 27.7383 24.3408C27.7383 24.6824 27.2231 24.3738 26.5935 23.6551C25.9639 22.9363 25.4421 22.6102 25.434 22.9304C25.426 23.2506 25.1719 23.5126 24.8695 23.5126C23.9948 23.5126 22.1728 25.4557 22.1728 26.3886C22.1728 26.8563 22.3816 27.239 22.6366 27.239C22.8917 27.239 23.1004 26.9487 23.1004 26.5939C23.1004 26.2391 23.6061 25.616 24.2242 25.2093C25.2672 24.5229 25.4255 24.5347 26.4272 25.3731C27.0207 25.8699 27.2873 26.2834 27.0194 26.2919C26.7516 26.3004 26.282 26.0559 25.9759 25.7485C25.543 25.3137 25.4194 25.4172 25.4194 26.2143C25.4194 26.8242 25.707 27.239 26.13 27.239C26.5208 27.239 27.0082 27.6941 27.2131 28.2503C27.4599 28.9203 27.6988 29.0775 27.9212 28.7161C28.1058 28.4161 28.4655 28.1706 28.7206 28.1706C28.9757 28.1706 29.0554 28.3802 28.8978 28.6364C28.7401 28.8926 28.8098 29.1022 29.0527 29.1022C29.2955 29.1022 29.6257 29.4463 29.7864 29.8668C30.0306 30.5061 29.9627 30.5348 29.3722 30.0426C28.3337 29.177 28.4238 30.4078 29.4775 31.4809C30.467 32.4885 30.5877 32.5251 30.4682 31.7806ZM32.3762 31.6641C32.3762 31.2798 32.0376 30.9654 31.6237 30.9654C31.0075 30.9654 30.9758 31.0919 31.4486 31.6641C31.7662 32.0484 32.1048 32.3628 32.2011 32.3628C32.2974 32.3628 32.3762 32.0484 32.3762 31.6641ZM41.44 31.9292C41.2933 31.6907 41.3853 31.3639 41.6446 31.203C41.9038 31.0421 42.1159 30.5828 42.1159 30.1822C42.1159 29.5877 41.9882 29.5605 41.4202 30.0339C40.6248 30.6968 40.4785 32.3628 41.2157 32.3628C41.4859 32.3628 41.5868 32.1677 41.44 31.9292ZM21.709 30.3928C21.709 29.6111 21.5926 29.551 21.0134 30.0338C20.6307 30.3528 20.3177 30.8959 20.3177 31.2408C20.3177 31.6068 20.6073 31.7562 21.0134 31.5997C21.396 31.4522 21.709 30.9091 21.709 30.3928ZM28.2021 30.4056C28.2021 29.9158 24.4945 26.3075 23.9913 26.3075C23.7564 26.3075 23.5642 26.6219 23.5642 27.0062C23.5642 27.3904 23.3555 27.7048 23.1004 27.7048C22.8453 27.7048 22.6366 28.2289 22.6366 28.8693C22.6366 29.5098 22.8453 30.0338 23.1004 30.0338C23.3555 30.0338 23.5642 29.7613 23.5642 29.4283C23.5642 27.9786 24.5496 27.8511 25.9074 29.125C27.3047 30.4359 27.8464 31.5562 26.5676 30.4903C25.6608 29.7344 25.1078 30.2601 25.8566 31.1662C26.3134 31.719 26.6017 31.7451 27.3141 31.2983C27.8025 30.992 28.2021 30.5902 28.2021 30.4056ZM14.2884 29.6869C14.2884 29.1186 14.1585 29.0964 13.5927 29.568C13.2101 29.887 12.897 29.9825 12.897 29.7803C12.897 29.5782 12.7878 29.5225 12.6542 29.6566C12.5207 29.7907 12.5451 30.2502 12.7084 30.6777C12.9388 31.2808 13.1491 31.3352 13.6469 30.9203C13.9997 30.6262 14.2884 30.0711 14.2884 29.6869ZM40.6771 29.1022C40.6909 28.5629 40.5469 28.5999 40.0459 29.264C39.6889 29.7372 39.5233 30.4555 39.678 30.8602C39.9172 31.4863 40.0113 31.4621 40.3092 30.6985C40.5017 30.2048 40.6673 29.4865 40.6771 29.1022ZM7.66085 30.0338C7.52744 29.5214 7.55528 29.1006 7.72271 29.0986C7.89014 29.0967 8.28478 28.5377 8.59964 27.8566C9.02033 26.9467 9.03602 26.4536 8.6588 25.9971C8.26548 25.5212 8.32821 25.3759 8.92708 25.3759C9.40056 25.3759 9.6691 25.0545 9.60829 24.5607C9.55306 24.1124 9.66764 23.3761 9.86293 22.9245C10.0686 22.4489 9.98421 21.8205 9.66238 21.4311C9.3568 21.0613 9.2325 20.5544 9.38616 20.3047C9.53983 20.055 9.43009 19.7045 9.14235 19.5259C8.23726 18.9641 7.78205 20.3954 8.51066 21.5122C9.38226 22.8482 9.37363 23.3169 8.49095 22.5811C7.92299 22.1077 7.79526 22.135 7.79526 22.7295C7.79526 23.13 8.00397 23.5873 8.25905 23.7456C8.51414 23.904 8.72284 24.2564 8.72284 24.5289C8.72284 24.8378 8.45673 24.8024 8.01593 24.435C6.93591 23.5348 6.64447 24.2657 7.53759 25.6347C7.97515 26.3054 8.20076 26.9871 8.03899 27.1496C7.8772 27.3121 7.55882 27.1427 7.33147 26.7733C7.10413 26.4039 6.7689 26.2514 6.58653 26.4346C6.40417 26.6177 6.63387 27.1881 7.09698 27.702C7.85519 28.5435 7.74838 28.8497 6.75172 28.6917C6.23529 28.6098 6.33039 29.4675 6.87523 29.8057C7.13447 29.9666 7.22651 30.2934 7.07975 30.5319C6.93299 30.7704 7.05828 30.9655 7.35818 30.9655C7.67509 30.9655 7.80184 30.5753 7.66085 30.0338ZM11.3713 29.5685C11.238 29.0564 11.3265 28.5147 11.568 28.3648C11.8095 28.2149 11.8802 27.6906 11.7251 27.1998C11.5563 26.6659 11.6621 26.3075 11.9884 26.3075C12.3385 26.3075 12.4295 25.8905 12.2427 25.143C12.0749 24.4715 12.1518 23.9785 12.4243 23.9785C13.111 23.9785 13.0059 22.1208 12.3172 22.0858C11.9983 22.0695 12.2289 21.8586 12.8295 21.617C13.5286 21.3358 13.8258 20.9274 13.6557 20.482C13.5095 20.0994 13.5775 19.7863 13.8068 19.7863C14.0362 19.7863 14.2905 19.3588 14.372 18.8363C14.5352 17.7902 15.3164 17.5273 15.6123 18.4188C15.7306 18.7754 15.5813 18.8487 15.2084 18.6172C14.7573 18.3372 14.6913 18.5708 14.9304 19.6004C15.1602 20.5896 15.1181 20.7639 14.7733 20.2521C14.4091 19.7116 14.3009 19.9024 14.2954 21.0948C14.2912 22.0022 14.0976 22.5177 13.8245 22.3482C13.5694 22.1899 13.3607 22.3748 13.3607 22.759C13.3607 23.1433 13.5962 23.6039 13.8841 23.7826C14.241 24.0041 14.1641 24.2441 13.6424 24.5374C13.2217 24.7739 13.0252 25.2076 13.206 25.5013C13.3867 25.7949 13.5787 26.5681 13.6326 27.2194C13.6865 27.8707 13.6303 28.1415 13.507 27.8213C13.1372 26.8584 12.501 27.1664 12.7651 28.1805C13.1968 29.8383 14.1392 28.3584 14.4254 25.5734C14.5719 24.1484 14.9395 22.6826 15.2424 22.316C15.5454 21.9494 15.674 21.6495 15.5282 21.6495C15.3825 21.6495 15.5656 20.9226 15.9352 20.0342C16.9622 17.5655 16.8068 16.59 15.3318 16.2463C14.6303 16.0829 13.5695 15.6434 12.9743 15.2697C12.0006 14.6584 11.8293 14.6756 11.2638 15.4416C10.6585 16.2614 10.61 16.2585 9.94885 15.362C9.57131 14.85 9.1054 14.5888 8.91349 14.7815C8.72157 14.9743 9.05395 15.6552 9.65212 16.2946C10.7187 17.4348 10.3722 17.9959 9.27937 16.8983C8.8465 16.4636 8.72282 16.5544 8.72282 17.3071C8.72282 17.8393 9.04059 18.5397 9.42899 18.8634C9.83664 19.2032 10.0195 19.818 9.86152 20.3178C9.52985 21.3673 10.3696 21.4748 10.9376 20.4555C11.2995 19.8061 11.4148 19.8158 12.0042 20.5449C12.3676 20.9946 12.4464 21.2313 12.1791 21.0709C11.9118 20.9105 11.3984 20.9623 11.0381 21.1859C10.4926 21.5245 10.5351 21.7664 11.2921 22.6316C12.0746 23.5259 12.0903 23.63 11.4045 23.379C10.3441 22.991 9.77463 23.9834 10.7448 24.5287C11.8642 25.1579 11.6842 25.9613 10.5078 25.5863C9.76996 25.3511 9.57721 25.4339 9.76769 25.9043C10.6883 28.1774 10.6888 28.184 9.93398 27.8931C8.94601 27.5124 8.98131 28.4105 9.99829 29.5291C11.0692 30.7072 11.6723 30.7245 11.3713 29.5685ZM12.2046 18.8598C12.0421 18.5958 12.2283 18.5177 12.641 18.6768C13.4444 18.9864 13.5915 19.3203 12.9243 19.3203C12.6843 19.3203 12.3604 19.1131 12.2046 18.8598ZM10.9283 17.69C11.0502 17.0495 11.23 16.5255 11.3278 16.5255C11.4256 16.5255 11.5056 17.0495 11.5056 17.69C11.5056 18.3305 11.3258 18.8545 11.1061 18.8545C10.8864 18.8545 10.8064 18.3305 10.9283 17.69ZM12.6312 17.2342C11.8466 16.638 11.8332 16.5534 12.5218 16.5403C12.9531 16.5322 13.4436 16.7491 13.6117 17.0223C14.1169 17.8433 13.5844 17.9584 12.6312 17.2342ZM15.6797 30.0338C15.6797 29.7776 15.471 29.568 15.2159 29.568C14.9609 29.568 14.7521 29.7776 14.7521 30.0338C14.7521 30.29 14.9609 30.4996 15.2159 30.4996C15.471 30.4996 15.6797 30.29 15.6797 30.0338ZM17.4286 29.6554C17.7068 28.817 16.7482 28.9932 16.4247 29.8398C16.2514 30.2935 16.355 30.5064 16.6939 30.393C16.997 30.2915 17.3276 29.9596 17.4286 29.6554ZM32.287 29.1324C31.9787 28.6366 31.5494 28.3408 31.333 28.4751C30.8908 28.7496 31.8001 30.0338 32.4366 30.0338C32.6626 30.0338 32.5953 29.6282 32.287 29.1324ZM21.2446 28.4042C21.9682 27.0464 21.58 26.38 20.5606 27.2297C19.8164 27.8499 19.5802 29.568 20.2391 29.568C20.4511 29.568 20.9035 29.0443 21.2446 28.4042ZM39.7967 27.3997C39.7967 26.4746 38.9733 26.639 38.4216 27.6742C37.6197 29.1792 37.8503 29.7953 38.8691 28.8693C39.3793 28.4056 39.7967 27.7443 39.7967 27.3997ZM17.071 27.4169C17.071 27.0326 16.8623 26.8478 16.6072 27.0061C16.3521 27.1644 16.1434 27.6084 16.1434 27.9927C16.1434 28.377 16.3521 28.5618 16.6072 28.4035C16.8623 28.2451 17.071 27.8012 17.071 27.4169ZM43.0432 26.8921C43.0432 26.2948 42.9312 26.2862 42.2716 26.8326C41.5741 27.4106 41.5518 27.3742 42.0397 26.4545C42.7026 25.205 42.7152 24.9101 42.1057 24.9101C41.8452 24.9101 41.397 25.4279 41.11 26.0608C40.71 26.9423 40.7267 27.3794 41.1814 27.9297C41.864 28.7557 43.0432 28.0984 43.0432 26.8921ZM19.39 26.4263C19.39 25.858 19.2601 25.8358 18.6943 26.3074C18.3116 26.6264 17.9986 27.2017 17.9986 27.586C17.9986 28.1543 18.1285 28.1764 18.6943 27.7048C19.0769 27.3859 19.39 26.8105 19.39 26.4263ZM32.8399 27.0061C32.8399 26.6219 32.5268 26.3074 32.1442 26.3074C30.9372 26.3074 31.3283 27.2254 32.7239 27.6681C32.7877 27.6883 32.8399 27.3904 32.8399 27.0061ZM34.0477 25.502C33.5762 25.0285 33.1872 25.7414 33.574 26.3699C33.8662 26.8448 33.9755 26.8452 34.1326 26.3718C34.24 26.0482 34.2018 25.6568 34.0477 25.502ZM36.9814 24.5332C36.9993 24.1979 36.8052 24.053 36.5502 24.2114C36.2951 24.3697 36.101 25.0633 36.119 25.7527C36.1481 26.8719 36.1942 26.9064 36.5502 26.0745C36.7694 25.5622 36.9634 24.8686 36.9814 24.5332ZM17.0709 25.088C17.0709 24.7037 16.8622 24.5188 16.6071 24.6772C16.352 24.8355 16.1433 25.2795 16.1433 25.6637C16.1433 26.048 16.352 26.2329 16.6071 26.0745C16.8622 25.9162 17.0709 25.4723 17.0709 25.088ZM21.2138 24.2346C20.5798 23.5862 19.6674 24.6824 20.0367 25.649C20.3201 26.3907 20.3915 26.3843 20.9946 25.5638C21.3989 25.0137 21.4821 24.5092 21.2138 24.2346ZM31.2344 25.8123C31.5489 25.3012 30.2165 23.5127 29.5212 23.5127C29.3057 23.5127 29.1293 23.8271 29.1293 24.2114C29.1293 24.5956 29.338 24.9101 29.5931 24.9101C29.8482 24.9101 30.0569 25.2245 30.0569 25.6087C30.0569 26.4147 30.7861 26.5408 31.2344 25.8123ZM35.6224 25.2827C35.6224 24.5302 35.4852 24.3957 35.1062 24.7763C34.8223 25.0614 34.7303 25.5226 34.9017 25.8011C35.3814 26.5807 35.6224 26.4074 35.6224 25.2827ZM41.3905 23.9311C41.2055 23.6305 40.7673 23.7504 40.2141 24.2532C39.431 24.9649 39.3326 24.9714 39.3326 24.3111C39.3326 23.9022 39.5413 23.4381 39.7964 23.2798C40.0515 23.1215 40.2602 22.7706 40.2602 22.5C40.2602 22.227 39.7442 22.3477 39.1007 22.7712C38.4589 23.1935 37.9412 23.3148 37.9412 23.043C37.9412 22.7729 38.2543 22.4312 38.6369 22.2838C39.0195 22.1363 39.3326 21.7289 39.3326 21.3783C39.3326 20.8828 39.0488 20.8426 38.0572 21.198C36.8955 21.6142 36.8583 21.5952 37.6398 20.9845C38.6415 20.2019 38.276 19.2466 37.1147 19.6118C36.3761 19.8441 36.3772 19.8133 37.1296 19.1907C37.9762 18.4902 38.2262 17.4573 37.5493 17.4573C37.3337 17.4573 36.7831 17.8726 36.3258 18.3802C35.7353 19.0355 35.6317 19.4743 35.9685 19.894C36.2293 20.219 36.5796 21.1287 36.7468 21.9155C36.914 22.7023 37.6625 24.0185 38.4099 24.8405L39.769 26.3349L40.7272 25.3726C41.2542 24.8434 41.5527 24.1947 41.3905 23.9311ZM32.3642 24.2463C31.7495 23.629 31.3672 24.156 31.7338 25.1153C31.9753 25.7474 32.1225 25.7875 32.421 25.3024C32.63 24.9628 32.6044 24.4876 32.3642 24.2463ZM19.5335 23.0051C19.1756 22.6456 18.8254 22.8006 18.3032 23.5493C17.3091 24.9747 17.815 25.5837 19.0405 24.437C19.7511 23.7721 19.8914 23.3645 19.5335 23.0051ZM33.8674 23.4273C33.1604 22.7172 32.7297 23.1497 33.1219 24.176C33.3376 24.7405 33.5705 24.8278 33.9212 24.4756C34.272 24.1233 34.2563 23.8179 33.8674 23.4273ZM23.8175 23.2118C25.1109 21.8101 25.2554 21.1837 24.2855 21.1837C23.5454 21.1837 22.1721 22.9158 22.1721 23.8492C22.1721 24.7304 22.5519 24.5833 23.8175 23.2118ZM36.4433 23.1342C36.7215 22.2958 35.7629 22.472 35.4394 23.3187C35.2661 23.7724 35.3697 23.9853 35.7086 23.8718C36.0117 23.7704 36.3423 23.4385 36.4433 23.1342ZM17.3212 23.0159C17.4894 22.7427 17.4731 22.3758 17.2851 22.2008C17.0971 22.0257 16.854 22.1326 16.7449 22.4385C16.6358 22.7443 16.247 22.8791 15.8808 22.738C15.5147 22.5969 15.2151 22.7134 15.2151 22.997C15.2151 23.6569 16.9174 23.6722 17.3212 23.0159ZM21.8697 22.3017C22.3412 21.6518 22.6033 20.9959 22.4523 20.8442C22.0658 20.456 20.3168 22.1284 20.3168 22.8862C20.3168 23.8394 20.9185 23.613 21.8697 22.3017ZM30.9841 23.1004C30.9841 22.5126 28.6446 21.049 28.284 21.4112C28.1186 21.5773 28.502 22.1134 29.1359 22.6026C30.3992 23.5774 30.9841 23.735 30.9841 23.1004ZM33.135 21.7488C32.3233 20.931 31.0311 21.4964 31.3052 22.5493C31.4897 23.2578 31.6962 23.3077 32.6269 22.8686C33.525 22.4449 33.6194 22.2368 33.135 21.7488ZM35.5506 21.905C35.648 21.4006 35.5138 21.1958 35.2097 21.3846C34.8678 21.5968 34.8048 21.2069 35.0115 20.1588C35.2988 18.7021 35.2681 18.6571 34.4248 19.298C33.7256 19.8293 33.6592 19.8343 34.1146 19.3213C34.4335 18.9622 34.6944 18.1606 34.6944 17.54C34.6944 16.5421 34.6052 16.4855 33.9228 17.0509C33.2252 17.6288 33.203 17.5925 33.6909 16.6728C33.9877 16.1132 34.2306 15.1176 34.2306 14.4603C34.2306 13.8029 34.3871 13.2878 34.5784 13.3155C35.3684 13.4299 37.0138 12.6532 37.0204 12.1628C37.0246 11.8424 37.1824 11.8802 37.4214 12.259C37.7299 12.7478 38.1054 12.6145 39.1535 11.6442C41.7529 9.23785 41.9659 9.07295 42.4744 9.07295C43.5161 9.07295 43.4912 8.17289 42.4173 7.00905C41.8099 6.35088 40.8822 5.81238 40.3557 5.81238C39.4117 5.81238 37.9409 6.92806 37.9409 7.64426C37.9409 7.84662 37.4694 7.92165 36.893 7.81101C36.1905 7.67614 35.4759 8.00453 34.7251 8.8072C34.1091 9.46575 33.8306 10.0046 34.1063 10.0046C34.382 10.0046 34.4984 10.4238 34.365 10.9362C34.224 11.4777 34.3507 11.8678 34.6677 11.8678C34.9675 11.8678 35.0818 12.0808 34.9216 12.3412C34.7614 12.6015 34.4776 12.7198 34.291 12.6039C33.6623 12.2137 32.7273 16.477 33.0476 18.2731C33.7681 22.3131 35.0991 24.2444 35.5506 21.905ZM35.9982 11.0776C36.5877 10.9601 37.1835 10.5671 37.3222 10.2042C37.4609 9.84121 37.7521 9.65456 37.9693 9.7894C38.8039 10.3075 37.8489 11.2078 36.4215 11.2485C35.4351 11.2767 35.291 11.2185 35.9982 11.0776ZM35.39 9.53891C35.5477 9.28272 36.0296 9.07632 36.4609 9.08025C37.1368 9.08639 37.1491 9.14978 36.5495 9.53891C35.6412 10.1284 35.0273 10.1284 35.39 9.53891ZM41.7857 22.1154C41.6523 21.603 41.3344 21.1838 41.0794 21.1838C40.8243 21.1838 40.7247 20.7646 40.8581 20.2522C41.0158 19.6467 40.8724 19.3206 40.4484 19.3206C39.5747 19.3206 39.6113 21.1418 40.4918 21.4812C40.8745 21.6286 41.1875 22.0413 41.1875 22.3981C41.1875 22.755 41.3767 23.047 41.6079 23.047C41.8391 23.047 41.9191 22.6278 41.7857 22.1154ZM20.3169 20.6518C20.3169 20.3772 19.9868 20.2798 19.5833 20.4353C19.1798 20.5908 18.7624 20.718 18.6557 20.718C18.549 20.718 18.4617 21.0398 18.4617 21.4331C18.4617 22.0038 18.649 22.0475 19.3893 21.6496C19.8995 21.3754 20.3169 20.9264 20.3169 20.6518ZM30.9841 20.6905C30.9841 20.4494 30.7753 20.2522 30.5203 20.2522C30.2652 20.2522 30.0565 20.579 30.0565 20.9784C30.0565 21.3778 30.2652 21.575 30.5203 21.4167C30.7753 21.2584 30.9841 20.9316 30.9841 20.6905ZM18.4617 19.469C18.4617 18.8769 18.3327 18.8484 17.7712 19.3164C17.3913 19.633 17.1971 20.0813 17.3394 20.3126C17.7053 20.9072 18.4617 20.3386 18.4617 19.469ZM32.5433 20.0194C32.3965 19.6351 32.1943 19.3207 32.0941 19.3207C31.9938 19.3207 31.9118 19.6351 31.9118 20.0194C31.9118 20.4036 32.114 20.7181 32.361 20.7181C32.6081 20.7181 32.6901 20.4036 32.5433 20.0194ZM44.8977 20.2855C44.8977 19.7253 43.5672 18.3891 43.0095 18.3891C42.4352 18.3891 42.4569 17.1223 43.0373 16.7621C43.2898 16.6053 43.3835 16.7713 43.2459 17.1315C42.9658 17.8646 45.1337 19.5171 45.8182 19.0922C46.6333 18.5863 45.7618 17.5465 44.6275 17.6716C44.0045 17.7403 43.5221 17.563 43.5555 17.2776C43.7373 15.7259 43.4686 15.2257 42.5788 15.4594C41.2699 15.8031 41.3377 18.2091 42.6948 19.5719C43.7848 20.6665 44.8977 21.027 44.8977 20.2855ZM22.6651 19.2042L22.6945 18.1562L23.1139 19.2042C23.6167 20.4606 24.9237 20.6081 24.8329 19.3983C24.7976 18.9286 24.5498 18.5114 24.282 18.4711C24.0142 18.4308 23.374 18.3335 22.8594 18.255C21.3768 18.0286 20.7983 17.4914 21.1066 16.6274C21.2636 16.1873 21.2215 15.9826 21.013 16.1725C20.8046 16.3624 20.3365 16.2698 19.9729 15.9668C19.2954 15.402 17.3926 15.0643 17.6517 15.5547C17.7309 15.7046 18.0833 16.4036 18.4349 17.1081C19.1016 18.4439 19.8473 18.8093 19.8607 17.8068C19.8649 17.4866 20.3029 17.9058 20.8338 18.7384C21.9622 20.508 22.6238 20.6763 22.6651 19.2042ZM29.0129 19.647C29.3318 19.4048 29.5927 18.8057 29.5927 18.3156C29.5927 17.5791 29.4372 17.5083 28.6956 17.9069C28.2022 18.1721 27.3917 18.3891 26.8945 18.3891C26.3792 18.3891 25.8858 18.7914 25.7469 19.3248C25.5379 20.1275 25.7115 20.2483 26.9682 20.174C27.774 20.1263 28.6941 19.8892 29.0129 19.647ZM40.4528 17.7698C40.8568 17.6141 41.1873 17.0142 41.1873 16.4367C41.1873 15.4583 41.0905 15.4931 39.7687 16.9465C38.8492 17.9576 38.4576 18.7725 38.6557 19.2629C38.916 19.9073 39.0173 19.8737 39.3398 19.0361C39.548 18.4953 40.0488 17.9255 40.4528 17.7698ZM37.477 16.0601C37.477 15.3551 36.275 15.5025 35.6267 16.287C35.3119 16.6681 35.1772 17.3016 35.3275 17.695C35.5605 18.3047 35.7391 18.2713 36.5389 17.468C37.0549 16.9498 37.477 16.3163 37.477 16.0601ZM47.3677 16.8425C47.672 17.0257 47.6314 16.8226 47.2759 16.3824C46.54 15.4712 47.1923 15.3121 48.1195 16.1765C48.6192 16.6423 48.6787 16.6423 48.4168 16.1765C48.2368 15.8563 48.3105 15.5943 48.5807 15.5943C49.3179 15.5943 49.1715 13.9283 48.3762 13.2653C47.9935 12.9464 47.6805 12.3175 47.6805 11.8679C47.6805 10.9088 47.0712 10.3799 45.03 9.56729C43.7648 9.06358 43.4313 9.08197 42.827 9.68884C41.7206 10.8001 41.9399 11.8679 43.2745 11.8679C43.9122 11.8679 44.4339 12.0579 44.4339 12.2901C44.4339 12.5223 44.0284 12.6058 43.5328 12.4756C43.0373 12.3454 41.9954 12.5578 41.2176 12.9475C39.88 13.6176 39.8281 13.6098 40.2583 12.8025C40.5084 12.3331 40.9763 11.8547 41.2981 11.7393C41.6199 11.624 41.7636 11.3983 41.6175 11.2378C41.2233 10.805 38.8763 12.0121 38.8721 12.6497C38.8702 12.9517 39.2153 13.547 39.6392 13.9727C40.3575 14.6942 40.3339 14.736 39.2913 14.5882C38.3938 14.461 38.1728 14.6368 38.1728 15.4778C38.1728 16.4101 38.8315 17.0489 38.8932 16.1765C38.9068 15.9843 39.4285 15.5584 40.0527 15.23C40.6768 14.9016 41.1874 14.3252 41.1874 13.9491C41.1874 13.573 41.3961 13.2652 41.6512 13.2652C41.9063 13.2652 42.115 13.5797 42.115 13.9639C42.115 14.6351 42.852 14.8582 44.5206 14.692C44.9509 14.6491 45.5457 15.0695 45.8423 15.6261C46.1613 16.2246 46.1863 16.517 45.9037 16.3415C45.6408 16.1784 45.2746 16.2903 45.09 16.5902C44.8797 16.932 44.9555 17.0107 45.2932 16.8012C45.604 16.6082 45.9718 16.8241 46.1628 17.3115C46.474 18.1061 46.5034 18.1075 46.6584 17.3353C46.7555 16.8512 47.0466 16.649 47.3677 16.8425ZM47.1363 15.28C46.7094 15.1667 46.0279 14.5645 45.6217 13.942C45.0132 13.0092 44.9857 12.6453 45.4659 11.8732C45.7863 11.3579 46.3113 10.9363 46.6326 10.9363C47.3131 10.9363 47.4264 12.6143 46.7732 13.0198C46.1559 13.403 46.7118 14.6627 47.4982 14.6627C47.8535 14.6627 48.1443 14.8723 48.1443 15.1285C48.1443 15.3847 48.0921 15.57 48.0283 15.5402C47.9645 15.5105 47.5632 15.3934 47.1363 15.28ZM46.7529 12.245C46.7529 11.6328 45.6988 12.0162 45.4677 12.7124C45.3548 13.0528 45.5668 13.1569 46.0185 12.9828C46.4224 12.8272 46.7529 12.4952 46.7529 12.245ZM14.7514 14.9219C14.7514 14.2737 13.069 12.7994 12.3293 12.7994C11.5695 12.7994 12.0158 14.1162 13.0122 14.8143C14.3345 15.7407 14.7514 15.7665 14.7514 14.9219ZM15.9519 13.8499C15.4453 13.341 15.0978 14.1502 15.4616 14.9919C15.8065 15.79 15.8315 15.7893 16.0236 14.9756C16.1343 14.5072 16.102 14.0007 15.9519 13.8499ZM37.9411 14.1462C37.9411 13.3783 36.8746 13.1825 35.8098 13.7548C34.0069 14.7239 34.3658 15.6084 36.3178 15.0067C37.2106 14.7315 37.9411 14.3443 37.9411 14.1462ZM10.5501 12.9993C10.082 12.4327 10.1179 12.3645 10.7552 12.6102C11.3675 12.8461 11.5245 12.6307 11.5111 11.5728C11.5017 10.8384 11.6146 9.50394 11.7618 8.60728C11.9376 7.53684 11.7962 6.66143 11.3501 6.05809C10.7461 5.24108 10.5418 5.20843 9.5088 5.76368C8.86979 6.10715 8.08608 6.22626 7.76727 6.02836C7.39235 5.79564 7.30449 5.8585 7.51853 6.20632C7.71462 6.52498 7.55484 6.74409 7.1264 6.74409C5.88933 6.74409 6.3329 8.08096 7.82751 8.85721C8.99765 9.46494 9.15167 9.71791 8.69108 10.2753C8.2456 10.8144 8.28648 11.1269 8.89016 11.7968C9.7305 12.7294 9.91078 13.4822 9.18607 13.0323C8.93098 12.874 8.72228 12.9523 8.72228 13.2064C8.72228 13.4604 9.13969 13.8013 9.64986 13.9639C10.16 14.1265 10.6016 14.5075 10.6312 14.8105C10.6608 15.1134 10.7824 14.9844 10.9014 14.5238C11.0204 14.0632 10.8624 13.3772 10.5501 12.9993ZM9.28372 10.7504C9.61263 10.3919 9.95482 10.1683 10.0442 10.2536C10.3192 10.516 9.62203 11.4021 9.14041 11.4021C8.89032 11.4021 8.95481 11.1088 9.28372 10.7504ZM15.8375 13.114C16.0054 13.2826 16.1395 12.7044 16.1356 11.829C16.1309 10.7731 15.9957 10.4479 15.734 10.8627C15.4461 11.3188 15.2773 11.1604 15.109 10.2764C14.9219 9.29358 14.9977 9.16441 15.5105 9.59187C16.8259 10.6882 16.0773 9.22299 14.7036 8.01236C13.3125 6.78639 12.3326 6.37286 12.5263 7.09349C12.5779 7.28563 12.4576 8.26385 12.2589 9.26731C11.9356 10.8996 12.0356 11.2248 13.2085 12.3542C14.0266 13.142 14.7098 13.4646 15.0259 13.2121C15.3044 12.9896 15.6697 12.9455 15.8375 13.114ZM13.1281 10.4705C12.2338 10.0845 12.2369 10.069 13.2166 10.0374C13.7755 10.0194 14.3618 10.2143 14.5194 10.4705C14.8585 11.0214 14.4046 11.0214 13.1281 10.4705ZM23.9316 12.0689C24.5116 11.6609 24.8313 11.0953 24.6557 10.7879C24.4828 10.4852 24.8579 10.7092 25.4895 11.2856C26.8218 12.5017 29.4762 12.7142 29.8876 11.6376C30.0338 11.2548 30.3403 11.0576 30.5687 11.1993C30.797 11.3411 30.9839 11.235 30.9839 10.9637C30.9839 10.3015 30.381 10.3407 29.6172 11.0527C29.2243 11.419 29.1042 11.4349 29.2935 11.0957C29.4589 10.7992 29.3984 10.0655 29.159 9.46546C28.9196 8.86537 28.7105 8.61399 28.6944 8.90684C28.6782 9.19966 28.3224 9.57129 27.9037 9.73264C27.2624 9.97978 27.2363 9.91241 27.7379 9.30542C28.6699 8.17759 27.927 7.95112 26.8485 9.0343C26.3171 9.56801 25.6091 10.0047 25.2752 10.0047C24.5028 10.0047 23.2915 9.04721 22.9182 8.14152C22.7598 7.75724 22.7489 8.05585 22.894 8.80509C23.1167 9.95523 23.0534 10.0803 22.4871 9.60835C21.9533 9.16336 21.7581 9.20205 21.5304 9.798C21.143 10.8119 21.1654 10.9363 21.7355 10.9363C22.0056 10.9363 22.1305 10.7791 22.013 10.5869C21.8954 10.3948 22.3701 10.217 23.0678 10.1919C23.8515 10.1637 24.3362 10.3888 24.3362 10.7809C24.3362 11.1818 24.0265 11.3168 23.4953 11.1475C23.0328 11.0001 22.2849 11.0955 21.8334 11.3595C21.3326 11.6523 21.2492 11.845 21.6195 11.8537C21.9534 11.8615 22.0976 12.0775 21.94 12.3337C21.4969 13.0537 22.7728 12.884 23.9316 12.0689ZM45.8322 62.6776C45.8285 61.2899 45.9196 60.2495 46.0351 60.3655C46.4592 60.7914 46.6055 63.9869 46.2283 64.5844C45.9908 64.9607 45.8365 64.2181 45.8322 62.6776ZM15.2536 62.8258C15.7109 62.6854 15.9879 62.0721 15.9879 61.2C15.9879 60.4288 16.3759 59.4435 16.8515 59.0067C17.6648 58.2598 17.6805 58.2599 17.1211 59.0081C16.7945 59.4449 16.4929 60.4904 16.4509 61.3314C16.3931 62.488 16.1485 62.8836 15.4468 62.9558C14.8788 63.0142 14.8039 62.9638 15.2536 62.8258ZM11.3005 61.4193C11.1329 60.7486 11.1001 60.0951 11.2276 59.967C11.3551 59.8389 11.5936 60.2708 11.7576 60.9268C11.9646 61.7551 12.4321 62.1775 13.2875 62.3094C14.4195 62.4838 14.4013 62.5048 13.0623 62.569C11.8509 62.627 11.5538 62.4332 11.3005 61.4193ZM8.9362 55.6802C9.08417 55.4398 8.90592 55.073 8.54011 54.8651C7.55971 54.308 8.11961 51.9252 9.23098 51.9252C9.74184 51.9252 10.2015 51.4964 10.3543 50.8772C10.7673 49.2034 10.8387 43.0719 10.4776 40.2803C10.27 38.6758 10.296 38.1536 10.5473 38.8829C10.7679 39.5234 10.9692 40.7706 10.9947 41.6544C11.049 43.5444 11.7965 43.0855 12.0952 40.979C12.2547 39.8541 12.3068 39.9632 12.3628 41.5385C12.401 42.6149 12.1192 44.7026 11.7366 46.1779C11.3539 47.6533 11.0409 49.5744 11.0409 50.4471C11.0409 51.8192 11.1699 52 11.9949 51.7833C12.6011 51.6241 12.884 51.7317 12.7708 52.0783C12.6728 52.3784 12.0869 52.6855 11.4689 52.7607C10.4186 52.8885 8.73649 55.1858 9.69314 55.1858C9.92423 55.1858 10.1133 55.3954 10.1133 55.6516C10.1133 55.9078 9.78793 56.1174 9.39025 56.1174C8.99257 56.1174 8.78824 55.9207 8.9362 55.6802ZM9.78892 53.3033C9.94913 52.688 9.84329 52.403 9.49707 52.5174C9.19828 52.6161 8.88412 53.1753 8.79888 53.7601C8.61108 55.0488 9.4332 54.6694 9.78892 53.3033ZM42.1276 54.037C41.8171 53.6613 41.6446 53.1086 41.7441 52.8088C41.8436 52.5091 42.2855 52.8164 42.7262 53.4919C43.5681 54.7824 43.0976 55.2108 42.1276 54.037ZM30.352 53.0897C30.4988 52.7054 30.6786 52.391 30.7516 52.391C30.8245 52.391 31.0044 52.7054 31.1512 53.0897C31.3122 53.5111 31.1535 53.7884 30.7516 53.7884C30.3496 53.7884 30.191 53.5111 30.352 53.0897ZM29.1283 52.4185C29.1283 51.891 29.337 51.4594 29.5921 51.4594C29.8472 51.4594 30.0559 51.7615 30.0559 52.1307C30.0559 52.4998 29.8472 52.9314 29.5921 53.0897C29.337 53.2481 29.1283 52.946 29.1283 52.4185ZM27.7369 52.1306C27.7369 51.7312 27.9456 51.534 28.2007 51.6923C28.4558 51.8507 28.6645 52.1775 28.6645 52.4185C28.6645 52.6596 28.4558 52.8568 28.2007 52.8568C27.9456 52.8568 27.7369 52.53 27.7369 52.1306ZM19.8525 51.0211C19.8525 49.8964 20.1104 49.7829 20.4783 50.7458C20.622 51.1219 20.54 51.5535 20.296 51.7049C20.0521 51.8563 19.8525 51.5486 19.8525 51.0211ZM29.1649 49.7903C29.1872 49.2476 29.2971 49.1373 29.4451 49.5089C29.5791 49.8451 29.5626 50.2469 29.4085 50.4017C29.2544 50.5564 29.1448 50.2813 29.1649 49.7903ZM28.5051 47.5001C28.6605 46.4754 28.8643 45.5496 28.958 45.4428C29.3093 45.0426 29.0463 47.5375 28.6429 48.4317C28.35 49.081 28.3082 48.7987 28.5051 47.5001ZM31.5205 40.2803C31.5205 39.6398 31.6258 39.3778 31.7544 39.698C31.8831 40.0183 31.8831 40.5423 31.7544 40.8625C31.6258 41.1828 31.5205 40.9208 31.5205 40.2803ZM5.98516 15.9215C5.39851 14.9404 5.40839 14.9305 6.207 15.6987C6.66672 16.1409 6.94304 16.603 6.82101 16.7255C6.699 16.8481 6.32284 16.4863 5.98516 15.9215ZM3.0169 12.0379C2.58719 11.6063 3.2083 10.4696 3.8738 10.4696C4.91167 10.4696 5.0905 11.3257 4.15741 11.8272C3.67364 12.0872 3.1604 12.182 3.0169 12.0379ZM18.9982 5.81161C18.9982 5.17114 19.1034 4.90913 19.2321 5.22937C19.3608 5.5496 19.3608 6.07362 19.2321 6.39386C19.1034 6.71409 18.9982 6.45208 18.9982 5.81161ZM27.2731 6.56732C27.2731 6.4706 27.6383 6.10378 28.0847 5.75218C28.8203 5.17278 28.8367 5.18926 28.2598 5.92803C27.6539 6.70396 27.2731 6.95072 27.2731 6.56732ZM28.5485 3.62731C28.1021 3.51015 27.7369 3.22005 27.7369 2.98265C27.7369 2.32458 28.482 2.46757 29.1283 3.24969C29.4458 3.63398 29.6279 3.92407 29.5329 3.89436C29.4379 3.86464 28.9949 3.74447 28.5485 3.62731ZM24.2585 2.551C24.4161 2.29481 24.6371 2.0852 24.7496 2.0852C24.8621 2.0852 24.9541 2.29481 24.9541 2.551C24.9541 2.80719 24.7331 3.0168 24.463 3.0168C24.1928 3.0168 24.1008 2.80719 24.2585 2.551Z" fill="white"/>
</svg>
